:SAMPLES-PER-SECOND 30
:FULLY-SPECIFIED
:DEGREES
698
root  -49.4547 39.7028 -4.68503 -4.44812 33.2104 2.59537
RightUpLeg  -14.9051 -4.11159 -9.90807
RightLeg  42.5754 -2.97813 -3.22239
RightFoot  -7.69232 -0.143746 2.87461
RightToes  5.23868e-010 0 -3.6325e-017
Spine  10.7009 -2.38225 -0.973501
Spine1  11.7681 -3.69482 1.387
HEad  -14.3934 10.7075 -5.51379
LeftShoulder1  0.558927 1.94466 -29.753
LeftArm  5.67499 -3.74759 -50.1772
LeftForeArm  21.3891 -12.3655 -9.20813
LeftHand  -0.0493105 3.33017 1.83165
RightShoulder  -0.355582 -4.59488 25.5404
RightArm  13.1924 -7.76739 38.8992
RightForeArm  -13.5215 11.7015 6.78128
RightHand  -0.535032 1.45922 -9.22546
LeftUpLeg  1.76419 6.27348 -5.35193
LeftLeg  15.961 4.77298 0.474896
LeftFoot  -12.8147 0.158261 6.3126
LeftToes  -4.9204e-010 1.02043e-011 -1.81609e-011
699
root  -48.9143 39.7358 -4.14553 -4.82166 36.7642 2.19196
RightUpLeg  -16.8515 -3.2872 -7.32719
RightLeg  39.0154 -1.91582 -1.93388
RightFoot  -7.83765 -0.158111 3.42396
RightToes  5.23868e-010 0 -3.6325e-017
Spine  10.8808 -2.34572 -1.55311
Spine1  11.5388 -3.74782 1.88548
HEad  -14.7503 9.91674 -5.04915
LeftShoulder1  0.563397 1.95565 -30.3022
LeftArm  11.9056 -4.44651 -51.6598
LeftForeArm  21.2272 -14.8679 -8.53376
LeftHand  -0.0524867 2.38381 1.58156
RightShoulder  -0.318726 -4.48309 25.3929
RightArm  14.8587 -6.4074 40.4581
RightForeArm  -15.2925 15.1642 6.36124
RightHand  -0.619276 2.44443 -9.35781
LeftUpLeg  3.74468 5.81118 -5.1613
LeftLeg  14.8332 1.92769 0.100089
LeftFoot  -13.1989 0.187518 6.64404
LeftToes  -4.9204e-010 1.02043e-011 -1.81609e-011
700
root  -48.3512 39.7402 -3.54712 -5.28943 40.065 1.93985
RightUpLeg  -17.6418 -1.69781 -5.34234
RightLeg  32.4752 -1.47314 -1.24412
RightFoot  -7.42602 -0.17909 3.76047
RightToes  5.23868e-010 0 -3.6325e-017
Spine  11.0663 -2.28951 -1.69387
Spine1  11.3113 -3.51257 1.6293
HEad  -14.9552 9.36381 -4.29493
LeftShoulder1  0.705647 1.55067 -30.0287
LeftArm  17.5334 -4.16881 -52.9679
LeftForeArm  19.3883 -17.5337 -7.18803
LeftHand  -0.030658 1.77757 0.669662
RightShoulder  -0.3817 -4.66282 25.9479
RightArm  16.0876 -4.28357 41.7829
RightForeArm  -15.0936 17.6424 5.9338
RightHand  -0.702034 2.96455 -9.97042
LeftUpLeg  5.91144 6.00897 -4.68119
LeftLeg  14.025 -1.42008 -0.508268
LeftFoot  -13.774 0.238058 7.30233
LeftToes  -4.9204e-010 1.02043e-011 -1.81609e-011
701
root  -47.6776 39.7119 -2.91472 -5.29333 43.3523 1.96283
RightUpLeg  -17.6495 -0.584769 -4.41057
RightLeg  23.7373 -1.40355 -0.859394
RightFoot  -7.39408 -0.211286 4.67933
RightToes  5.23868e-010 0 -3.6325e-017
Spine  10.347 -2.45432 -1.4785
Spine1  12.0068 -3.45102 1.21629
HEad  -14.9854 9.18035 -4.60337
LeftShoulder1  0.669672 1.64086 -29.8439
LeftArm  21.058 -4.16736 -54.126
LeftForeArm  16.9522 -18.9417 -6.40657
LeftHand  -0.0461925 1.26453 1.12565
RightShoulder  -0.379579 -4.67707 25.3524
RightArm  15.6963 -2.27758 43.8065
RightForeArm  -12.9631 19.7263 5.50772
RightHand  -0.702947 3.63221 -9.29822
LeftUpLeg  7.88583 6.13377 -4.3771
LeftLeg  13.2561 -4.60362 -1.05627
LeftFoot  -14.4197 0.299552 7.89457
LeftToes  -4.9204e-010 1.02043e-011 -1.81609e-011
702
root  -46.9441 39.6091 -2.23846 -5.36182 46.5031 2.0553
RightUpLeg  -17.1488 -0.553733 -3.86955
RightLeg  15.0368 -0.727352 -0.574068
RightFoot  -7.22358 -0.242823 5.34673
RightToes  5.23868e-010 0 -3.6325e-017
Spine  10.1251 -2.50499 -0.911981
Spine1  11.7921 -3.22327 0.691471
HEad  -14.7101 9.32952 -4.58498
LeftShoulder1  0.728766 1.49731 -30.2318
LeftArm  22.4575 -3.8156 -54.2252
LeftForeArm  15.5977 -19.5586 -6.05699
LeftHand  -0.0496657 1.23931 1.2108
RightShoulder  -0.361258 -4.63032 25.0444
RightArm  14.3911 -0.989878 44.94
RightForeArm  -11.025 21.7278 5.33523
RightHand  -0.729409 4.46373 -8.8513
LeftUpLeg  9.87452 6.53078 -3.76546
LeftLeg  13.1344 -8.03942 -1.79497
LeftFoot  -15.5368 0.402426 8.41953
LeftToes  -4.9204e-010 1.02043e-011 -1.81609e-011
703
root  -46.1149 39.4613 -1.48948 -5.44275 49.5999 2.28143
RightUpLeg  -16.4775 -2.46322 -3.28205
RightLeg  8.36002 2.17569 -0.492131
RightFoot  -6.14997 -0.334353 6.46412
RightToes  5.23868e-010 0 -3.6325e-017
Spine  9.3412 -2.65861 0.0406242
Spine1  12.3624 -2.99123 -0.377613
HEad  -14.5757 8.506 -4.72917
LeftShoulder1  0.670338 1.66097 -30.2942
LeftArm  20.6332 -3.5108 -54.0887
LeftForeArm  16.1057 -19.2035 -6.20352
LeftHand  -0.00993861 1.23849 0.100047
RightShoulder  -0.35576 -4.60417 25.2478
RightArm  13.0326 0.454534 45.5476
RightForeArm  -10.4046 23.3567 5.5107
RightHand  -0.847665 4.46735 -10.2377
LeftUpLeg  12.1776 6.70407 -3.28092
LeftLeg  12.9874 -11.0585 -2.10996
LeftFoot  -16.7423 0.518316 8.83064
LeftToes  -4.9204e-010 1.02043e-011 -1.81609e-011
704
root  -45.2388 39.2527 -0.68566 -5.86829 52.3997 2.44177
RightUpLeg  -15.9499 -3.31279 -3.09143
RightLeg  5.74946 4.5926 -0.586182
RightFoot  -4.98727 -0.380211 6.20455
RightToes  5.23868e-010 0 -3.6325e-017
Spine  8.93084 -2.59401 0.865037
Spine1  12.7175 -2.76212 -0.779788
HEad  -14.0826 8.34687 -5.91285
LeftShoulder1  0.615281 1.82744 -30.6115
LeftArm  17.8835 -3.10796 -53.2727
LeftForeArm  16.3236 -18.4079 -6.61164
LeftHand  0.0138329 1.0264 -0.529728
RightShoulder  -0.252548 -4.28855 24.8281
RightArm  11.9336 1.5303 45.9195
RightForeArm  -9.64768 24.757 5.77909
RightHand  -0.940281 4.96345 -10.8082
LeftUpLeg  14.7151 6.48819 -2.88479
LeftLeg  13.1845 -13.3017 -1.92784
LeftFoot  -18.1444 0.663685 9.29865
LeftToes  -4.9204e-010 1.02043e-011 -1.81609e-011
705
root  -44.335 38.9826 0.146901 -5.91638 54.9411 2.55399
RightUpLeg  -15.9974 -2.95349 -3.14002
RightLeg  6.73066 4.92389 -0.657842
RightFoot  -4.59686 -0.331269 5.08482
RightToes  5.23868e-010 0 -3.6325e-017
Spine  8.0664 -2.43306 1.81931
Spine1  13.1981 -2.41142 -1.12884
HEad  -13.8739 8.23265 -6.27078
LeftShoulder1  0.629792 1.77952 -30.4491
LeftArm  14.1117 -2.51 -52.3771
LeftForeArm  17.7609 -17.08 -7.25902
LeftHand  -0.0225194 1.38906 0.468077
RightShoulder  -0.327165 -4.509 25.4587
RightArm  12.499 3.38759 45.5186
RightForeArm  -9.43141 25.3106 5.89794
RightHand  -0.960967 4.96088 -11.0436
LeftUpLeg  16.4316 5.35291 -2.60555
LeftLeg  14.2308 -14.534 -2.084
LeftFoot  -19.9779 0.842234 9.54113
LeftToes  -4.9204e-010 1.02043e-011 -1.81609e-011
706
root  -43.4219 38.7808 0.960246 -6.52368 57.7409 1.90448
RightUpLeg  -16.0762 -2.75882 -3.03154
RightLeg  10.0073 3.2809 -0.393096
RightFoot  -1.08732 -0.206003 2.44758
RightToes  5.23868e-010 0 -3.6325e-017
Spine  7.74201 -2.44889 2.80521
Spine1  13.1368 -2.63192 -0.130694
HEad  -13.732 7.53455 -6.6385
LeftShoulder1  0.574638 1.95461 -30.9989
LeftArm  11.9851 -1.35144 -50.5392
LeftForeArm  18.0017 -16.6292 -7.36868
LeftHand  -0.0535592 2.01646 1.47851
RightShoulder  -0.372768 -4.66013 25.2226
RightArm  13.4962 4.88218 45.6591
RightForeArm  -9.20223 25.1734 5.85571
RightHand  -0.894217 4.29501 -10.971
LeftUpLeg  17.8099 1.27514 -3.16257
LeftLeg  15.3822 -12.3987 -1.70105
LeftFoot  -21.1548 0.918578 9.19509
LeftToes  -4.9204e-010 1.02043e-011 -1.81609e-011
707
root  -42.4748 38.6452 1.815 -8.4325 60.0406 -0.124146
RightUpLeg  -15.9525 -3.29949 -2.34822
RightLeg  13.2703 3.25338 0.294319
RightFoot  5.06988 -0.0747036 0.66056
RightToes  5.23868e-010 0 -3.6325e-017
Spine  7.31403 -2.72102 5.65342
Spine1  13.3229 -2.47251 -0.944324
HEad  -13.4618 6.44538 -6.32962
LeftShoulder1  0.589341 1.90709 -30.837
LeftArm  8.92957 0.138377 -48.4557
LeftForeArm  18.0691 -16.1846 -7.33263
LeftHand  -0.0586857 2.08665 1.72127
RightShoulder  -0.41697 -4.77938 25.7581
RightArm  14.6745 6.38039 45.9778
RightForeArm  -9.59028 24.263 5.66089
RightHand  -0.885581 4.99491 -10.1609
LeftUpLeg  18.9643 -4.21434 -3.34617
LeftLeg  17.4582 -8.49365 -1.97042
LeftFoot  -21.6753 0.846399 7.92626
LeftToes  -4.9204e-010 1.02043e-011 -1.81609e-011
708
root  -41.4499 38.4776 2.71653 -10.4944 60.8403 -2.35114
RightUpLeg  -16.0238 -3.64224 -1.44212
RightLeg  17.6615 3.4961 1.03976
RightFoot  5.3786 -0.208339 1.64721
RightToes  5.23868e-010 0 -3.6325e-017
Spine  7.35984 -2.4531 8.82957
Spine1  12.6408 -1.59395 -2.21261
HEad  -13.33 6.5707 -7.22406
LeftShoulder1  0.462246 2.26648 -31.2435
LeftArm  6.51878 1.74709 -46.081
LeftForeArm  17.1274 -15.987 -7.18862
LeftHand  -0.0760562 2.56706 2.57098
RightShoulder  -0.434699 -4.8222 26.0738
RightArm  15.8821 7.25419 46.2456
RightForeArm  -10.5796 23.1776 5.5088
RightHand  -0.812053 4.80152 -9.52561
LeftUpLeg  19.0959 -6.31332 -2.27558
LeftLeg  21.9527 -7.4692 -3.05978
LeftFoot  -21.6406 0.632493 5.56583
LeftToes  -4.9204e-010 1.02043e-011 -1.81609e-011
709
root  -40.4832 38.4698 3.60346 -11.7739 61.2666 -4.6409
RightUpLeg  -16.3536 -4.61958 0.0927467
RightLeg  21.0628 3.64257 1.33237
RightFoot  2.94414 0.0591139 -0.311413
RightToes  5.23868e-010 0 -3.6325e-017
Spine  6.37956 -2.17258 11.9748
Spine1  12.5585 -0.686216 -3.12586
HEad  -12.8781 6.943 -7.52918
LeftShoulder1  0.366837 2.51783 -31.1283
LeftArm  3.93106 4.2373 -43.9051
LeftForeArm  15.8371 -16.1064 -6.7914
LeftHand  -0.0855475 3.01491 3.6801
RightShoulder  -0.41609 -4.73966 26.7145
RightArm  18.2818 8.35206 47.0709
RightForeArm  -11.9331 21.0109 5.50401
RightHand  -0.881597 4.55629 -10.5466
LeftUpLeg  16.9613 -5.1482 0.55484
LeftLeg  28.1479 -9.7428 -5.32517
LeftFoot  -19.0942 0.27111 2.23876
LeftToes  -4.9204e-010 1.02043e-011 -1.81609e-011
